<?xml version="1.0" encoding="utf-8"?>
<!-- Generator: Adobe Illustrator 26.2.1, SVG Export Plug-In . SVG Version: 6.00 Build 0)  -->
<svg version="1.1" id="Layer_1" xmlns="http://www.w3.org/2000/svg" xmlns:xlink="http://www.w3.org/1999/xlink" x="0px" y="0px"
	 viewBox="0 0 285.6 317.4" style="enable-background:new 0 0 285.6 317.4;" xml:space="preserve">
<style type="text/css">
	.st0{display:none;}
	.st1{display:inline;}
	.st2{fill:#401338;}
	.st3{fill:#D9E026;}
</style>
<g>
	<g class="st0">
		<g class="st1">
			<path class="st2" d="M344,33.5h37v7.1h-14.1v45.9h-8.7V40.6H344V33.5z"/>
			<path class="st2" d="M423.3,63.4h-24.9v23.2h-8.7v-53h8.7v22.7h24.9V33.5h8.7v53h-8.7V63.4z"/>
			<path class="st2" d="M472.7,40.6h-20.6v15.6h18.3v7.1h-18.3v16.2h20.6v7.1h-29.3V33.5h29.3V40.6z"/>
			<path class="st2" d="M370.9,96.7c11.1,0,20.6,5.6,24.6,15.9h-10.4c-2.8-5.6-7.9-8.3-14.2-8.3c-10.5,0-18.1,7.5-18.1,19.4
				c0,12,7.6,19.5,18.1,19.5c6.3,0,11.4-2.7,14.2-8.3h10.4c-4,10.4-13.6,15.9-24.6,15.9c-14.9,0-27.1-11.1-27.1-27.1
				C343.8,107.9,355.9,96.7,370.9,96.7z"/>
			<path class="st2" d="M439.3,127.2h-24.9v23.2h-8.7v-53h8.7v22.7h24.9V97.4h8.7v53h-8.7V127.2z"/>
			<path class="st2" d="M459.4,97.4h8.7v53h-8.7V97.4z"/>
			<path class="st2" d="M497,150.9c-10.6,0-18.8-5.8-18.8-15.2h9.3c0.4,4.3,3.4,7.9,9.5,7.9c6.1,0,9.5-3.3,9.5-7.8
				c0-12.8-28.1-4.5-28.1-24c0-9.3,7.4-15.1,18.2-15.1c10.1,0,17.3,5.3,18.1,14.4h-9.6c-0.3-3.6-3.4-6.9-8.9-7
				c-5-0.2-8.9,2.3-8.9,7.4c0,12,28.1,4.5,28.1,23.9C515.3,143.3,508.8,150.9,497,150.9z"/>
			<path class="st2" d="M559.2,127.2h-24.9v23.2h-8.7v-53h8.7v22.7h24.9V97.4h8.7v53h-8.7V127.2z"/>
			<path class="st2" d="M603.5,150.9c-14.9,0-27.1-11.2-27.1-27.1c0-15.9,12.1-27.1,27.1-27.1c15.1,0,27.1,11.2,27.1,27.1
				C630.6,139.7,618.6,150.9,603.5,150.9z M603.5,143.3c10.5,0,18.1-7.6,18.1-19.6c0-12-7.6-19.4-18.1-19.4
				c-10.5,0-18.1,7.5-18.1,19.4C585.3,135.7,593,143.3,603.5,143.3z"/>
			<path class="st2" d="M647.8,97.4v46h17.9v7h-26.6v-53H647.8z"/>
			<path class="st2" d="M672.9,97.4h9.4l18.6,41.6l18.5-41.6h9.3v53h-8.7v-36.3l-16.2,36.3h-6l-16.2-36.3v36.3h-8.7V97.4z"/>
			<path class="st2" d="M355.4,161.2v46h17.9v7h-26.6v-53H355.4z"/>
			<path class="st2" d="M409.8,168.2h-20.6v15.6h18.3v7.1h-18.3v16.2h20.6v7.1h-29.3v-53.1h29.3V168.2z"/>
			<path class="st2" d="M469.3,176.4h-10.4c-2.8-5.3-7.9-8-14.2-8c-10.5,0-18.1,7.5-18.1,19.1s7.6,19.2,18.1,19.2
				c9.6,0,15.6-5.8,16.9-14.7h-19.9v-6.9h29.2v6.8c-1.6,12.3-12,22.7-26.2,22.7c-14.9,0-27.1-11.1-27.1-27.1
				c0-15.9,12.1-27.1,27.1-27.1C455.7,160.5,465.3,166.1,469.3,176.4z"/>
			<path class="st2" d="M511.4,203.3h-22.2l-3.8,10.8h-9.1l19-53.1h10.1l19,53.1h-9.1L511.4,203.3z M500.3,171.6l-8.7,24.6h17.3
				L500.3,171.6z"/>
			<path class="st2" d="M556.7,160.5c11.1,0,20.6,5.6,24.6,15.9h-10.4c-2.8-5.6-7.9-8.3-14.2-8.3c-10.5,0-18.1,7.5-18.1,19.4
				c0,12,7.6,19.5,18.1,19.5c6.3,0,11.4-2.7,14.2-8.3h10.4c-4,10.4-13.6,15.9-24.6,15.9c-14.9,0-27.1-11.1-27.1-27.1
				C529.7,171.7,541.8,160.5,556.7,160.5z"/>
			<path class="st2" d="M586.9,161.2h9.7l12.3,26l12.3-26h9.6L613.2,195v19.2h-8.7V195L586.9,161.2z"/>
			<path class="st2" d="M365,256.5h-9.6V278h-8.7v-53H365c12.6,0,18.8,7.2,18.8,15.8C383.8,248.3,378.8,256.5,365,256.5z M365,249.4
				c6.8,0,9.8-3.3,9.8-8.6c0-5.5-3-8.7-9.8-8.7h-9.6v17.3H365z"/>
			<path class="st2" d="M410.4,225c12.6,0,18.8,7.2,18.8,15.9c0,6.3-3.4,13-12.3,15.2l13.1,22h-10.4l-12.2-21.2h-6.6V278h-8.7v-53
				H410.4z M410.4,232.1h-9.6v17.8h9.6c6.8,0,9.8-3.7,9.8-9C420.2,235.5,417.1,232.1,410.4,232.1z"/>
			<path class="st2" d="M464.4,278.5c-14.9,0-27.1-11.2-27.1-27.1c0-15.9,12.1-27.1,27.1-27.1c15.1,0,27.1,11.2,27.1,27.1
				C491.5,267.3,479.5,278.5,464.4,278.5z M464.4,271c10.5,0,18.1-7.6,18.1-19.6c0-12-7.6-19.4-18.1-19.4
				c-10.5,0-18.1,7.5-18.1,19.4C446.3,263.4,453.9,271,464.4,271z"/>
			<path class="st2" d="M520.1,225h8.8v38.2c0,9.6-6.5,15.3-15.6,15.3c-9.1,0-15.6-5.7-15.6-15.3h8.8c0.1,4.4,2.2,7.6,6.9,7.6
				c4.7,0,6.9-3.2,6.9-7.6V225z"/>
			<path class="st2" d="M572.3,232h-20.6v15.6H570v7.1h-18.3v16.2h20.6v7.1H543v-53.1h29.3V232z"/>
			<path class="st2" d="M607.1,224.3c11.1,0,20.6,5.6,24.6,15.9h-10.4c-2.8-5.6-7.9-8.3-14.2-8.3c-10.5,0-18.1,7.5-18.1,19.4
				c0,12,7.6,19.5,18.1,19.5c6.3,0,11.4-2.7,14.2-8.3h10.4c-4,10.4-13.6,15.9-24.6,15.9c-14.9,0-27.1-11.1-27.1-27.1
				C580.1,235.5,592.2,224.3,607.1,224.3z"/>
			<path class="st2" d="M639.2,225h37v7.1H662V278h-8.7v-45.9h-14.2V225z"/>
		</g>
	</g>
	<g>
		<g>
			<g>
				<g>
					<path class="st3" d="M131.7,48.3c0.9-0.7,1.9-1.5,2.9-2.2c6.3,3.5,5.5,12-0.1,15.8C129.9,60.3,128.8,54.9,131.7,48.3z"/>
					<path class="st3" d="M212.8,79.3c4.4-4.5,12-5,15.9,2.2c-1.5,2.8-4.2,3.6-7,3.6C217.7,85.1,214.8,82.9,212.8,79.3z"/>
					<path class="st3" d="M143.9,56.3c5.2,4,6.6,11.5-0.3,16.3C137.4,68,137.9,60.6,143.9,56.3z"/>
					<path class="st3" d="M127.8,33.8c4,5.2,3.4,12.8-4.5,15.6C118.6,43.4,120.9,36.4,127.8,33.8z"/>
					<path class="st3" d="M25.5,134.6c1.3-4.1,3.6-7.2,7.9-7.8c2.3-0.3,4.8,0.5,7,0.7c0.7,1.7-4,8.4-7.2,8.6
						C30.6,136.4,28.2,136,25.5,134.6z"/>
					<path class="st3" d="M67.2,115.6c-0.9,7-7.5,11-14.9,6.7C55.1,111.6,66.9,115.4,67.2,115.6z"/>
					<path class="st3" d="M228.6,76.6c4.1-7.4,12-7.4,15.6-2.5C241.9,80.6,233.4,82,228.6,76.6z"/>
					<path class="st3" d="M239.7,93.6c4.1-7.4,12-7.4,15.6-2.5C253,97.6,244.6,99,239.7,93.6z"/>
					<path class="st3" d="M250.8,107.1c4.1-7.4,12-7.4,15.6-2.5C264.1,111.1,255.7,112.5,250.8,107.1z"/>
					<path class="st3" d="M250.3,46.9c1.1,6.5-4.2,12.7-12.1,10.4c-0.3-2.7,1-5.2,1.6-7.7C243.1,47.5,246.4,45.7,250.3,46.9z"/>
					<path class="st3" d="M153.3,62.1c-0.6,0.5-3.1-3.1-3.3-3.5c-1.4-2.6-2.4-5.5-1-8.4c0.4-0.9,2.2-4.7,3.6-4
						C158.9,49.2,159.3,56.9,153.3,62.1z"/>
					<path class="st3" d="M189.6,78c-1.2-7.5,3-12.2,11.1-11.9c0.7,3.2,0.2,6.4-2,8.8C196.3,77.5,193.1,78.3,189.6,78z"/>
					<path class="st3" d="M206.1,67.1c-4.7-5.9-3.4-12.1,3.9-15.8c2.2,2.5,3.3,5.5,2.5,8.7C211.7,63.4,209.3,65.6,206.1,67.1z"/>
					<path class="st3" d="M117.6,66.5c-5.9,3.3-12.2-0.6-13.5-8.4c2.5-1.8,5.2-1.2,7.9-0.3C115,58.9,117.2,62.3,117.6,66.5z"/>
					<path class="st3" d="M87.1,27.3c-5.9,3.3-12.2-0.6-13.5-8.4c2.5-1.8,5.2-1.2,7.9-0.3C84.5,19.6,86.7,23.1,87.1,27.3z"/>
					<path class="st3" d="M85.4,64.8c-5.9,3.3-12.2-0.6-13.5-8.4c2.5-1.8,5.2-1.2,7.9-0.3C82.8,57.1,84.9,60.6,85.4,64.8z"/>
					<path class="st3" d="M268,121.8c-5.8,6.4-12.7,4-15.9-1.8C256.2,114.5,262.7,115.1,268,121.8z"/>
					<path class="st3" d="M285,141.7c-5.8,6.4-12.7,4-15.9-1.8C273.2,134.4,279.7,135.1,285,141.7z"/>
					<path class="st3" d="M252.8,185.1c-5.8,6.4-12.7,4-15.9-1.8C241,177.7,247.4,178.4,252.8,185.1z"/>
					<path class="st3" d="M249.3,124.6c-6.8,1.8-12.5-1.2-12.9-9.5C242.9,112.8,249.7,116.5,249.3,124.6z"/>
					<path class="st3" d="M56.9,168.4c-8.8-6.5-4-14-2.8-16.7c3.2,1.6,5.2,3.7,6,6.7C61,162.3,59.7,165.5,56.9,168.4z"/>
					<path class="st3" d="M162.3,50c-5.9-4.5-5.1-12.4,1.6-16.2c1,1.5,2.5,2.9,2.8,4.5C167.5,43.2,166.9,47,162.3,50z"/>
					<path class="st3" d="M158.3,30.8c1.1-7.3,8.5-10.4,15-6.5c-0.8,1.6-1.3,3.6-2.6,4.6C166.7,32.1,163.1,33.4,158.3,30.8z"/>
					<path class="st3" d="M243.8,140.6c-7-0.3-11.6-6.2-8.6-13.4C242.5,127.3,246.7,134.1,243.8,140.6z"/>
					<path class="st3" d="M248.4,172.8c-7-0.3-11.6-6.2-8.6-13.4C247.2,159.6,251.4,166.3,248.4,172.8z"/>
					<path class="st3" d="M214.8,103.9c-0.8-7.3,5.5-12.4,12.1-10.1C227.6,101.1,222.5,105.6,214.8,103.9z"/>
					<path class="st3" d="M244.7,85.8c-0.8-7.3,5.5-12.4,12.1-10.1C257.5,83,252.4,87.4,244.7,85.8z"/>
					<path class="st3" d="M6.9,130c5.3-5.6,11.5-4.7,15.9,1.7C19.6,137.6,11.4,136.7,6.9,130z"/>
					<path class="st3" d="M0.4,140c5.3-5.6,11.5-4.7,15.9,1.7C13.1,147.6,4.9,146.7,0.4,140z"/>
					<path class="st3" d="M169.1,20.9c-5.1-6.7-2.3-13.4,3.2-16C177.7,10.9,176.1,18,169.1,20.9z"/>
					<path class="st3" d="M260.1,184.9c4.1-0.2,7.5,0.4,9.7,3.3c2.4,3.2,2.8,6.7,0.8,10.8c-0.3-0.9-0.6-1.5-0.9-2.3
						c-3.4-0.2-6.1-1.6-8.1-4.4c-0.2-0.3-0.6-0.6-0.7-0.9C260.6,189.4,260.4,187.4,260.1,184.9z"/>
					<path class="st3" d="M35.2,167.6c3.6,6.2,1.3,12.8-6.7,14.6C24.7,176.5,27.8,169.8,35.2,167.6z"/>
					<path class="st3" d="M285,159.7c-2.9,1.5-5.6,3.5-9.1,2.5c-3.1-0.9-5.8-2.6-7-5.8C275.1,151.3,281.8,152.7,285,159.7z"/>
					<path class="st3" d="M72.4,104.1c-0.1,0.8-4.6,0.1-5.1-0.1c-1.9-0.6-3.8-1.3-5-3c-1.4-2.1-2.1-4.6-2.2-7
						C67.6,91.5,73.5,96.8,72.4,104.1z"/>
					<path class="st3" d="M46,97.1c-0.1,0.8-4.6,0.1-5.1-0.1c-1.9-0.6-3.8-1.3-5-3c-1.4-2.1-2.1-4.6-2.2-7
						C41.3,84.5,47.1,89.7,46,97.1z"/>
					<path class="st3" d="M55.1,96.4c-0.4,0.6-3.9-1.9-4.2-2.3c-1.6-1.5-3.1-3.2-3.2-5.5c0-0.7,0.4-7.2,1.4-7
						C56.9,83.1,59.6,90.5,55.1,96.4z"/>
					<path class="st3" d="M29.3,71.8c-0.4,0.6-3.9-1.9-4.2-2.3c-1.6-1.5-3.1-3.2-3.2-5.5c0-0.7,0.4-7.2,1.4-7
						C31.1,58.5,33.8,65.9,29.3,71.8z"/>
					<path class="st3" d="M58.5,81.8c2.7-5.7,9.5-8.1,15.9-2.9c-0.7,3-2.9,4.6-5.6,5.7C65.3,85.9,61.6,84.8,58.5,81.8z"/>
					<path class="st3" d="M41.8,71.7c4.9-3.9,12.1-3,15.5,4.5c-2,2.4-4.7,2.8-7.5,2.6C46,78.4,43.2,75.8,41.8,71.7z"/>
					<path class="st3" d="M71.9,126.2c-0.2,1.2-2.8,10.5-14.8,7.2c1.2-3.3,2-6.5,5.6-7.8C65.8,124.6,68.8,124.7,71.9,126.2z"/>
					<path class="st3" d="M88.1,128c-1.1,0.6-9.9,4.4-14.9-7.1c3.3-1.1,6.3-2.5,9.6-0.4C85.6,122.2,87.4,124.6,88.1,128z"/>
					<path class="st3" d="M220,115.5c3.5-1.8,6.9-2.1,10.1,0c2.4,1.6,3.9,4,4.1,7C227.2,126.2,221.5,123,220,115.5z"/>
					<path class="st3" d="M114.8,5.1c6.8,3.2,8.4,9.4,3.5,15.6c-2.9-0.4-4.3-2.7-5.5-4.9C110.8,11.9,112.1,8.4,114.8,5.1z"/>
					<path class="st3" d="M62.2,45.2c-7.5-0.4-11.7-6.1-9.5-12.7C60.2,32.2,65.5,39.1,62.2,45.2z"/>
					<path class="st3" d="M133.7,29.6c1.5,0.7,2.9,1.4,4.6,2.2c1.9,2,3.4,4.6,3.1,8.1c-0.4,1.3-0.9,3-1.4,4.5
						C132.3,43.5,129.7,35.9,133.7,29.6z"/>
					<path class="st3" d="M230.9,133.3c-5.3,2.3-9.6,1.7-13.3-2.9c-0.4-0.9-1-2.2-1.8-3.9c2.7-1.9,5.6-2,8.5-1.2
						C228.2,126.4,229.9,129.4,230.9,133.3z"/>
					<path class="st3" d="M281.9,133.3c-5.3,2.3-9.6,1.7-13.3-2.9c-0.4-0.9-1-2.2-1.8-3.9c2.7-1.9,5.6-2,8.5-1.2
						C279.1,126.4,280.9,129.4,281.9,133.3z"/>
					<path class="st3" d="M239.7,82.5c2.9,6.6-1,13-8.4,13.4C228.3,90.3,231.9,82.5,239.7,82.5z"/>
					<path class="st3" d="M217.5,87c-3.2,6.4-10.7,7.4-15.7,2C204.3,83.2,212.6,81.1,217.5,87z"/>
					<path class="st3" d="M73.9,37.8c-7.5-0.2-12.2-7.3-8.9-13.2C73.1,25.1,75.8,30.4,73.9,37.8z"/>
					<path class="st3" d="M249.5,70.6c0.3-3.5,1.3-6.7,4.3-8.4c2.7-1.6,5.9-2.4,9.1-0.6c-0.1,2.8-1.4,5-2.6,7.1
						C257.1,70.9,253.7,71.9,249.5,70.6z"/>
					<path class="st3" d="M18.3,120.6c-5.2,5.1-11.9,4.3-16-1.9c1.8-2.7,4.6-3.5,7.6-3.6C13.9,115,16.4,117.3,18.3,120.6z"/>
					<path class="st3" d="M36.7,142c-3.5,7.4-11.7,7.4-15.9,2.6C23.4,139.3,30,136.3,36.7,142z"/>
					<path class="st3" d="M246.8,128.7c6.6-4.3,12.6-1.2,14.8,5.9C255.6,138.5,248.7,135.6,246.8,128.7z"/>
					<path class="st3" d="M198.8,121c6.6-4.3,12.6-1.2,14.8,5.9C207.5,130.8,200.6,128,198.8,121z"/>
					<path class="st3" d="M47.4,159.3c2.7,7,1,13.3-6.6,14.9c-2-2.7-2-5.8-1-8.7C40.9,162,43.7,160.2,47.4,159.3z"/>
					<path class="st3" d="M222.5,24.5c2.2,7.5-0.7,11.9-8.7,13.3C210.5,31.5,215.4,24.3,222.5,24.5z"/>
					<path class="st3" d="M67,89.4c3.5-5.5,12.1-6,16,0.5C78.5,95.9,71.8,95.2,67,89.4z"/>
					<path class="st3" d="M38.6,124.7c-1.4-6.7,4.2-11.6,12.2-10.5c0.1,1.2-2.1,7.1-3.4,8.5c-0.7,0.8-1.9,1.4-2.9,1.8
						C42.5,125.3,40.5,125.3,38.6,124.7z"/>
					<path class="st3" d="M30.9,194.4c-1.6-7.2,2.8-12.8,9.8-12.5C42.3,190.2,38.1,195.7,30.9,194.4z"/>
					<path class="st3" d="M258.5,85.2c0.2-7.1,7.5-11.1,13.7-7.6C272,84.4,266.2,87.6,258.5,85.2z"/>
					<path class="st3" d="M162.6,11.5c1.5,3.4,1.3,6.6-0.6,9.5c-1.7,2.8-4.5,4.1-7.6,4.4C151.1,19.2,154.8,13,162.6,11.5z"/>
					<path class="st3" d="M155.6,0.4c1.5,3.4,1.3,6.6-0.6,9.5c-1.7,2.8-4.5,4.1-7.6,4.4C144.1,8.1,147.7,1.9,155.6,0.4z"/>
					<path class="st3" d="M153.7,29.9c1.8,3.2,1.9,6.4,0.4,9.5c-1.4,2.9-4,4.5-7.1,5.1C143.1,38.7,146.1,32.1,153.7,29.9z"/>
					<path class="st3" d="M186.1,64.7c-0.7-6.3,4.6-12.8,12.1-9.8C199,61.7,193.1,66.6,186.1,64.7z"/>
					<path class="st3" d="M197.9,48.4c0.8-6.3,7.6-11.3,14.1-6.6C211.2,48.6,204.2,51.9,197.9,48.4z"/>
					<path class="st3" d="M179.1,53.5c-0.7-6.3,4.6-12.8,12.1-9.8C192,50.5,186,55.5,179.1,53.5z"/>
					<path class="st3" d="M169.1,67c-0.7-6.3,4.6-12.8,12.1-9.8C182,64,176.1,68.9,169.1,67z"/>
					<path class="st3" d="M88.1,107.1c-3.9,0.6-7.4,0.3-10.6-2.7c-1.1-2-2.4-4.2-2.4-6.9C81.6,94.7,87.1,98.4,88.1,107.1z"/>
					<path class="st3" d="M19.5,106.4c3.6-6.1,11.6-7,16-1.1C31.4,111.3,25.7,112.2,19.5,106.4z"/>
					<path class="st3" d="M191.9,9.9c2.7,3.4,2.2,7.1,0.9,11c-1.6,1.8-3.2,3.8-5.9,4.3C182.5,18.8,184.9,12.3,191.9,9.9z"/>
					<path class="st3" d="M48.9,57.3c-7.7,1.6-12.8-2.7-11.6-10.2C44.4,45.1,50.1,51,48.9,57.3z"/>
					<path class="st3" d="M256.3,155.9c4.9-1.9,12.5,0.9,12.4,9.8c-2.7,0.9-5.4,0.8-7.9-0.6C257.5,163.2,256,160,256.3,155.9z"/>
					<path class="st3" d="M107.7,52.4c-1.5,2.2-3.9,1.6-5.5,2.2c-3.9-0.6-6.6-2.4-8.3-5.5c-0.5-0.9-0.5-1.9-0.7-2.8
						C99.5,43.1,105.7,45.2,107.7,52.4z"/>
					<path class="st3" d="M22.2,99.8c-6.2,3.3-13-0.4-13.9-7.6c3.1-1.8,6.3-1.6,9.3,0.2C20.3,93.9,22.3,96.3,22.2,99.8z"/>
					<path class="st3" d="M263.1,175.9c7.2-3.4,13.6,0.6,14.1,7.5c-2.6,1.7-5.4,1.4-8.5,0.6C266,182.1,263.7,179.8,263.1,175.9z"/>
					<path class="st3" d="M24.3,175.9c-1.9,7.8-7.4,10.2-14.2,7.4c0.7-3.4,2.2-6.4,5.4-7.9C18.3,174.1,21.4,173.7,24.3,175.9z"/>
					<path class="st3" d="M28.1,185c0.7,8-3.9,12-11.2,11.5c-0.4-3.4,0.1-6.8,2.7-9.2C21.8,185.1,24.7,183.8,28.1,185z"/>
					<path class="st3" d="M219.3,59c-2-1.9-3.4-3.7-4-6c-0.6-2.4-0.5-4.6,1.2-6.6c0.9-1,1.5-2.2,2.2-3.2c3.4,1.4,5.4,4.4,5.2,7.8
						C223.8,54.3,222.7,57.2,219.3,59z"/>
					<path class="st3" d="M208.8,29.1c-2-1.9-3.4-3.7-4-6c-0.6-2.4-0.5-4.6,1.2-6.6c0.9-1,1.5-2.2,2.2-3.2c3.4,1.4,5.4,4.4,5.2,7.8
						C213.3,24.5,212.2,27.4,208.8,29.1z"/>
					<path class="st3" d="M197.7,43.8c-2-1.9-3.4-3.7-4-6c-0.6-2.4-0.5-4.6,1.2-6.6c0.9-1,1.5-2.2,2.2-3.2c3.4,1.4,5.4,4.4,5.2,7.8
						C202.2,39.1,201.1,42,197.7,43.8z"/>
					<path class="st3" d="M2.7,159.3c3.8-6.9,9.9-8.1,15.8-2.9C14.5,163.4,8.8,164.1,2.7,159.3z"/>
					<path class="st3" d="M4.7,169.1c3.2-5.7,8.3-6.7,13.2-2.4C14.5,172.4,9.9,173,4.7,169.1z"/>
					<path class="st3" d="M35,120.4c-2.4,6.4-12,6.3-15.4,1.8C22.5,115.3,32,114.6,35,120.4z"/>
					<path class="st3" d="M52.1,126.5c4.1,5.5-1.2,13.4-6.8,13.9C41,134.2,45.6,125.8,52.1,126.5z"/>
					<path class="st3" d="M31.4,155.6c-0.2,7.7-5.3,11.9-12.2,10.1C17.9,159.7,23.2,153.6,31.4,155.6z"/>
					<path class="st3" d="M113.1,24.4c6.6-3.7,12.7-0.9,14.5,6.4c-2.6,1.4-5.3,2.5-8.2,1.1C116.1,30.5,113.5,28.3,113.1,24.4z"/>
					<path class="st3" d="M86.5,66.3c5.4-0.8,11.8,1.9,11.6,11.2c-2.8,1.2-6.1,0.1-8.9-2.2C86.2,72.8,87.1,69.5,86.5,66.3z"/>
					<path class="st3" d="M83.6,31.2c5.4-0.8,11.8,1.9,11.6,11.2c-2.8,1.2-6.1,0.1-8.9-2.2C83.3,37.7,84.2,34.4,83.6,31.2z"/>
					<path class="st3" d="M199.4,106.3c0.9-7.9,5.8-11.3,13-8.9c-0.7,2-1.3,4-2.1,6C208.8,107,202.7,108.6,199.4,106.3z"/>
					<path class="st3" d="M230.3,167.6c-0.3-0.1-0.6-0.2-0.7-0.3c-1-2.5-3.2-4.7-2.5-7.8c0.7-3.1,2.3-5.5,5.1-7.2
						c0.2-0.1,0.6-0.1,0.8-0.2C238.5,157.9,236.1,165.2,230.3,167.6z"/>
					<path class="st3" d="M224.8,45.2c-1.5-6.6,0.7-10.9,5.4-12c0.7-0.2,1.4-0.5,2.2-0.7c0.6-0.2,1.3-0.2,2.1-0.3
						c1,3.8,0.3,7.2-1.9,10.5C230.4,43.8,227.9,45.3,224.8,45.2z"/>
					<path class="st3" d="M276.7,124.4c-2.5-0.8-5.3-1.3-7.4-3.4c2-5.8,10.4-8.4,15.8-2.3C283.2,121.8,280.5,123.6,276.7,124.4z"/>
					<path class="st3" d="M265,99.6c0.7-3.2,2.5-5.3,4.7-7.3c3.1-1,6.2-2.2,9.4-0.2C279,98.4,272.8,103.5,265,99.6z"/>
					<path class="st3" d="M250.6,142.4c2.3-3.3,5.6-3.2,8.6-3.4c3.5-0.2,5.1,3.1,7.6,5.2c-1.8,2.6-4.5,3.2-7.1,3.6
						C255.5,148.3,253,145.6,250.6,142.4z"/>
					<path class="st3" d="M89.1,54.3c3.1-0.5,6-0.2,8.8,1.5c2.5,2.2,3.6,5.3,3.7,8.7C96,66.3,88.7,63.5,89.1,54.3z"/>
					<path class="st3" d="M73.9,40.2c3.1-0.5,6-0.2,8.8,1.5c2.5,2.2,3.6,5.3,3.7,8.7C80.7,52.2,73.5,49.4,73.9,40.2z"/>
					<path class="st3" d="M15.1,77.3c6.1-2.7,12.2,0.2,14,7.3c-2,0.5-3.5,2.3-5.9,1.8c-2.2-0.5-4.1-1.2-5.6-2.9
						C16.1,81.8,15.2,79.8,15.1,77.3z"/>
					<path class="st3" d="M251.7,168c6.5,0,10.8,6.8,7.4,13.7c-3.2,0.3-5.6-1.5-7.1-4.1C250.2,174.6,250.1,171.2,251.7,168z"/>
					<path class="st3" d="M95.7,10c7.4,2.6,8.8,9.6,4.6,15.3c-2.1-0.9-4.4-1.6-4.5-4.6C92.9,19,92.8,13.1,95.7,10z"/>
					<path class="st3" d="M43,82.9c-8.1,2.3-14.2-1.8-13.3-8.3c4.7-1.4,7.2-0.8,11.1,2.6C41.6,79.2,42.2,80.9,43,82.9z"/>
					<path class="st3" d="M125.1,11.7c8.5,1,10.1,8.1,7.6,13.4c-4-0.3-6.9-2.4-8.2-5.9C123.7,16.9,123.2,14,125.1,11.7z"/>
					<path class="st3" d="M132.7,0c8.5,1,10.1,8.1,7.6,13.4c-4-0.3-6.9-2.4-8.2-5.9C131.4,5.1,130.8,2.3,132.7,0z"/>
					<path class="st3" d="M68.3,43.2c5.8,4.7,5.3,11.5-0.6,15.9C62.2,55.8,61.3,46.3,68.3,43.2z"/>
					<path class="st3" d="M143.5,35c-5.3-6.6-4-11.9,0.6-15.7c2.1,0.8,3.9,3.2,4.2,6.3C148.6,29.7,146.5,32.6,143.5,35z"/>
				</g>
				<g>
					<g>
						<path class="st2" d="M152.3,123.3c0-2.2-0.3-4.4,0-6.5c0.7-5.4,1.6-10.7,2.5-16c0.3-1.7,0.2-3.5-1.5-4.2
							c-2-0.8-4.2-1.2-6.4-1.5c-0.4,0-1.3,1.3-1.3,2c-0.2,3.5-0.6,7.2,0,10.6c0.6,3.2,1.8,6.2-0.2,9.3c-0.1,0.2,0,0.6,0,1
							c0.1,2.3,0.2,4.7,0.3,7.3c0,1.7,0.1,3.6,2.7,3.8c1.9,0.1,3.6-1.6,3.9-4C152.4,124.5,152.4,123.9,152.3,123.3z"/>
					</g>
					<g>
						<path class="st2" d="M148.5,127.6c-1-0.1-1.4-0.3-1.4-2.3l-0.3-7.4c0-0.1,0-0.3,0-0.4c1.7-2.9,1.1-5.8,0.5-8.3
							c-0.1-0.5-0.2-1.1-0.3-1.7c-0.5-2.6-0.3-5.4-0.1-8.1c0-0.7,0.1-1.5,0.1-2.2c0-0.1,0.2-0.4,0.3-0.6c1.8,0.2,3.7,0.6,5.5,1.3
							c0.3,0.1,1,0.4,0.7,2.7l-0.6,3.9c-0.6,4-1.3,8.1-1.8,12.2c-0.2,1.6-0.1,3.2-0.1,4.7c0,0.7,0.1,1.4,0.1,2l0,0.4
							c0,0.4,0,0.8,0,1.1C150.7,126.4,149.7,127.6,148.5,127.6L148.5,127.6z"/>
					</g>
					<g>
						<path class="st2" d="M157.8,124.8c1.3-0.8,2.6-2.3,3-3.8c1.5-4.7,2.7-9.4,3.8-13.7c1.2,3.3,2.6,4.1,7.5,2.8
							c-0.8-1-1.3-1.7-1.9-2.4c-0.9-1.1-1.9-2.2-2.9-3.3c-1-1.1-1.9-2.5-3-3.4c-2.6-2.1-5.8-1.5-7.2,1.6c-0.7,1.6-0.9,3.5-1.1,5.3
							c-0.5,5-1,9.9-1.4,14.9C154.5,124.9,156,126,157.8,124.8z"/>
					</g>
					<g>
						<g>
							<path class="st2" d="M156.4,123.9C156.3,123.9,156.3,123.9,156.4,123.9c-0.2-0.1-0.3-0.4-0.2-1c0.4-4.9,0.9-9.9,1.4-14.8
								l0-0.3c0.2-1.6,0.4-3.3,1-4.6c0.6-1.2,1.5-2,2.7-2c0.8,0,1.6,0.3,2.3,0.9c0.3,0.3,0.6,0.6,0.9,0.9l-1.1,4
								c-0.3,1.2-0.6,2.4-1,3.6c-0.9,3.3-1.8,6.7-2.9,10c-0.4,1.1-1.4,2.3-2.5,3C156.7,123.8,156.4,123.9,156.4,123.9L156.4,123.9z
								 M168.6,109.3c-1.2,0-1.8-0.2-2.6-2.4l-1.2-3.3c0.2,0.2,0.4,0.4,0.6,0.7c0.3,0.4,0.6,0.8,0.9,1.1l0.6,0.7
								c0.8,0.9,1.5,1.7,2.2,2.6c0.2,0.2,0.3,0.4,0.5,0.6C169.3,109.2,168.9,109.3,168.6,109.3z"/>
						</g>
					</g>
					<g>
						<path class="st2" d="M143,99.6c-0.1-4-2.4-6.1-6.4-5.8c-3.7,0.3-4.7,2-4,6.4c0.1,0.8,0,1.7,0.3,2.4c0.9,2,0.5,5.2,4.1,5
							c1.4-0.1,2.7,0.1,4.1,0c1.2,0,2-0.5,1.9-1.9C142.9,103.7,143,101.6,143,99.6z"/>
					</g>
					<g>
						<path class="st2" d="M140.4,106.2c-0.4,0-0.8,0-1.2,0c-0.4,0-0.9,0-1.3,0c-0.3,0-0.7,0-1,0l-0.2,0c-1.2,0-1.5-0.4-1.9-2.3
							c-0.2-0.6-0.3-1.3-0.6-1.9c-0.1-0.2-0.1-0.6-0.1-1.1c0-0.3,0-0.6-0.1-0.9c-0.3-2-0.2-3.3,0.3-3.9c0.4-0.5,1.2-0.8,2.5-0.9
							c0.3,0,0.5,0,0.7,0c2.7,0,4.1,1.5,4.1,4.4c0,0.9,0,1.7,0,2.6c0,1.2,0,2.3,0,3.5c0,0.2,0,0.4,0,0.4c0,0,0,0,0,0
							c0,0-0.2,0-0.5,0.1C140.8,106.2,140.6,106.2,140.4,106.2z"/>
					</g>
					<g>
						<path class="st2" d="M124.4,96.4c-2.6-0.2-4.1,1.4-5.3,3.5c-1.1,1.8-1.1,3.3,0.4,4.7c1.1,1,2,2.8,3.2,2.9c3,0.3,6-0.1,9.2-0.2
							c-0.7-2.2-1.3-4.6-2.2-6.9C128.8,98.2,127,96.7,124.4,96.4z"/>
					</g>
					<g>
						<path class="st2" d="M125.2,106.3c-0.8,0-1.6,0-2.3-0.1c-0.3-0.1-0.9-0.8-1.3-1.3c-0.3-0.4-0.7-0.9-1.1-1.2
							c-0.8-0.8-1.1-1.5-0.2-3c1.3-2.1,2.2-2.9,3.6-2.9c0.1,0,0.2,0,0.4,0c2.4,0.2,3.6,1.9,4.1,3.2c0.6,1.5,1.1,3.1,1.5,4.7
							c0,0.1,0.1,0.2,0.1,0.3c-0.3,0-0.6,0-0.9,0.1C127.8,106.2,126.5,106.3,125.2,106.3L125.2,106.3z"/>
					</g>
					<g>
						<path class="st2" d="M137,123c-0.5,0.3-1.1,0.7-1.2,1.1c0,2,1.3,3,3,3.6c1.9,0.6,4-0.2,4.2-1.8c0.2-2,0.1-4.1,0.1-6.5
							C140.7,120.8,138.9,121.9,137,123z"/>
					</g>
					<g>
						<path class="st2" d="M140.2,126.5c-0.3,0-0.6,0-0.8-0.1c-1.5-0.5-1.9-1.2-2-1.8c0.1-0.1,0.3-0.2,0.4-0.3
							c1.3-0.8,2.6-1.5,4-2.4c0,1.4,0,2.7-0.1,3.9C141.7,126.1,141.1,126.5,140.2,126.5L140.2,126.5z"/>
					</g>
					<g>
						<path class="st2" d="M163.4,119.4c-1.6,8-10.4,8.5-10.2,10c0,0.2,0,0.5-0.1,0.8c-0.7,2.1-1.3,3.3-1.3,3.3l18.2,0.7
							c4-7.4,2.2-23.3,2.2-23.3C168.3,111.9,164.7,113,163.4,119.4z"/>
					</g>
					<g>
						<path class="st2" d="M153.9,132.2c0.2-0.4,0.4-0.9,0.5-1.5c0.1-0.3,0.1-0.5,0.2-0.8c0.3-0.2,0.8-0.4,1.2-0.5
							c2.7-1.2,7.8-3.4,9-9.6c1-4.9,3.3-6.2,6.1-7c0.3,4,0.8,14.3-1.8,20.1L153.9,132.2z"/>
					</g>
					<g>
						<path class="st2" d="M112.9,125.3c0,0,6-7.1,6.9-12.1c0.9-5-2.5-9-2.5-9S114.3,116.3,112.9,125.3z"/>
					</g>
					<g>
						<path class="st2" d="M115.3,119.6c0.8-4.4,1.8-8.7,2.5-11.7c0.5,1.4,0.9,3.1,0.6,5C118.1,115,116.7,117.5,115.3,119.6z"/>
					</g>
					<g>
						<g>
							<path class="st2" d="M283.9,149.1c1.8-2,1.8-2,1.6-3.9c-16.4,6.7-32.5,4.3-48.4-2c-0.5,0.4-4.6-1.7-5.4-2
								c-2.6-1-5.3-1.9-7.9-2.9c-9.2-3.5-18.6-6.4-28.6-6.7c-1,0-6.8,0.4-8.9,0.8c-0.1-0.2,4.9-5.7,5.1-6.7c1.6-1.4,3.2-2.8,4.9-4.1
								c1.5-1.1,9.3-4.7,12.8-6.3l0.3,0.1l8.3-2.4c0,0,0,0,0-0.1c0.6-0.1,1.2-0.2,1.9-0.3c7.7-1.2,15.3-1.4,23,0.1
								c6.1,1.2,12.3,2.3,18.6,1.9c2.9-0.2,5.8-0.5,8.6-0.6c4.5-0.1,8.6-1.7,12.7-3.3c0.5-0.2,0.7-0.9,1-1.3
								c-0.1-0.3-0.2-0.5-0.3-0.8c-15.2,5.4-30.2,3.3-45.1-1c0.7-0.3,1.3-0.7,2.1-0.9c5.5-1.6,10.7-3.5,15-7.4
								c0.2-0.2,0.5-0.3,0.7-0.5c2.2-1.3,4.5-2.5,6.7-3.9c2-1.3,3.9-2.8,5.7-4.2c1.8-1.5,3.6-3,5.3-4.6c1.1-1,1.5-2.2,0.5-3.7
								c-0.5,0.2-1,0.3-1.4,0.6c-3.1,2.3-6.2,4.7-9.4,7c-5.4,4-11.2,7.3-17.4,10.1c-5.3,2.4-11,3.3-16.6,4.5c-5,1.1-10.1,2-15.2,2.9
								c-0.7,0.1-1.4,0.3-2,0.6c-1.4,0.3-2.6,0.6-3.3,0.7c0,0-0.1-0.1-0.1-0.1c-3.6,0.6-6.9,2.6-10.5,1.4c-1.7-1.4-2.2-3.1-2-5.1
								c0.3-2.9,0.5-5.8,0.9-8.7c0.5-4.1,2-7.7,4.8-10.8c2.4-2.6,4.7-5.2,6.7-7.4c1.5-0.7,2.5-1,3.4-1.5c3.8-2.3,7.9-3.9,12.1-4.9
								c7.1-1.7,14.1-3.9,20.6-7.5c4.4-2.5,8.6-5.2,12.3-9.1c-0.4-0.5-0.7-1-1.1-1.6c-10.6,8.8-22.7,13.4-36.6,15
								c10.2-8.3,17.5-18.2,21.9-30.4c-0.9-0.6-1.6-1-2.5-1.6c-3.7,6.5-6.8,13.3-11.8,18.7c-5,5.5-11,9.8-17,14.2c0,0.1,0,0.2,0,0.4
								l-1.2,0.9c0-0.1,0-0.2,0-0.3c-1.4,0.9-2.6,1.4-3.5,2.2c-3.1,2.4-6.1,4.8-9.1,7.3c-2.9,2.4-5,2.2-7.6-0.4
								c-4-4.1-8.6-6.9-14.3-7.9c-1.9-0.3-3.8-0.9-5.6-1.5c-1.9-0.6-2.7-2.1-2.6-4.1c0.1-4.6,2-8.6,5.1-11.8
								c3.9-4.1,8.3-7.6,12.5-11.4c1-0.9,1.6-2.4,2.7-2.9c2.8-1.4,4.1-4.1,5.9-6.2c4.7-5.3,7.8-11.6,9.9-18.4
								c0.1-0.4-0.2-0.9-0.5-1.9c-0.6,0.9-0.9,1.3-1.2,1.8c-1.3,2.6-2.5,5.3-3.9,7.8c-1.4,2.5-2.6,5.3-4.6,7.4
								c-4.7,5.2-9.8,10-15.7,14c-0.7,0.4-1.3,0.9-2,1.4c-0.2-0.1-0.4-0.2-0.6-0.3c5.7-12.4,8.3-25.3,6.5-39.1c-0.9,0-1.7,0-2.6,0
								c0.7,11-1.5,21.3-4.7,31.3c-1,1.9-1.9,3.7-2.9,5.5c-3.1,5.4-6.2,10.8-9.3,16.2c-1.6,2.9-3.2,5.8-4.9,8.6
								c-1.3,2.2-2.9,4.2-4.3,6.3c-2.3,3.5-5,6.7-8,9.5c-0.5-0.2-0.8-0.2-1-0.4c-0.6-0.5-1.1-1.1-1.7-1.6c-3.7-4-6.8-8.5-9.6-13.2
								c-0.8-1.4-2-2.7-2.7-4.1c-1.6-2.9-2.9-6-4.6-8.8c-1.8-2.8-2.4-6.2-4.7-8.7c-1-1.1-1.7-2.4-2.3-3.7c-1.6-3.4-3.2-6.9-4.5-10.4
								c-0.4-1.1-0.8-2.2-1.1-3.4c-0.4-1.5-0.8-3.4-1.3-5.6c-0.4-2.4-0.7-4.9-0.8-7.3c-0.2-3-0.1-6-0.1-9.1c0-0.4-0.2-0.7-0.4-1.3
								c-0.1,0-0.2,0-0.3,0l-1.1-0.2c0,0,0,0.1,0,0.2c-0.2,0-0.5,0-0.7,0c-1.3,2.8-0.5,5.4-0.7,8c-0.3,4.4,0.4,8.7,0.9,13
								c0.1,1.4,0.3,2.8,0.4,4.5c0.3,0.3,0.6,0.6,0.8,1c0.9,4,2.4,8,4.5,11.5c0.1,0.4,0.1,0.8,0.2,1.2c-0.7-0.4-1.4-0.9-2.2-1.3
								l-0.3-0.5c0,0-18.2-16.6-23.5-27.7c0,0-0.1,0.3-0.2,1c-0.1-0.1-0.2-0.3-0.3-0.4c-0.7,2-0.2,4.1,0.9,5.7
								c1.1,3.5,3.8,8.4,9.8,14.4c0.9,1.3,1.6,2.7,1.5,4.5c0,0.1,0.2,0.2,0.3,0.4c0.2-0.6,0.5-1.1,0.7-1.8c1.4,1.3,2.5,2.5,3.7,3.6
								c3.5,3.1,6.9,6.3,10.5,9.2c0.6,0.5,1.1,1,1.6,1.5c0.3,0.4,0.7,0.8,1,1.2c1.7,2.3,2.8,4.9,3.7,7.8c1.5,5-0.6,7.3-5.2,7.9
								c-0.3,0-0.6,0-0.9,0.1c-5.8,1-11,3.1-15.2,7.5c-1.1,1.2-2.5,2.1-4.1,3.3c-1.4-0.5-3.1-0.8-4.2-1.7c-2.7-2-5.2-4.3-7.8-6.5
								c-1.2-1-5.7-4-6.9-4.9c-3.1-2.5-6.3-4.9-9.5-7.3c-6.4-4.9-11.2-11.1-15-18.1c-1.2-2.3-2.5-4.5-3.7-6.9
								c-0.7,0.3-1.1,0.5-1.5,0.7c-0.3,0.2-0.5,0.6-0.9,1c4.2,12,11.5,21.8,21.2,30.1c-5-0.9-9.9-1.8-14.7-3.1
								c-2.5-0.7-5-1.6-7.3-2.8c-4-2.2-7.8-4.7-11.7-7.2c-1-0.6-1.8-1.4-3.2-0.6c5.1,6.8,12.4,10,19.7,12.9c4.9,2,10.2,3,15.3,4.7
								c6.5,2.1,12.6,5,17.5,10.2c5,5.3,7.7,11.4,7.6,18.7c0,2.1,0.4,4.2,0.6,6.7c-1,2.2-7,2.3-7.5,1.9c-1.4-0.3-2.6-0.5-3.9-0.8
								c-8-1.7-16-3.5-24-4.9c-7.7-1.4-15.1-3.5-21.9-7.7c-4.8-3-9.7-5.8-14.1-9.4c-2.1-1.7-4.3-3.2-6.5-4.8c-1.5,1.9-1.5,2.8,0,4
								c0.8,0.7,1.8,1.2,2.6,1.9c4.8,3.6,9.6,7.4,14.5,10.8c5.6,3.9,12.1,6.2,18.5,8.8c-2.8,0.6-5.5,1.3-8.1,1.9
								c-3.5,0.7-7,1.7-10.6,1.8c-6.6,0.3-13.3,0.7-19.8-1.1c-1.8-0.5-3.6-1-5.4-1.4c-0.5-0.1-1.1,0.1-1.7,0.2
								c0,0.2-0.1,0.5-0.1,0.7c1.2,0.6,2.3,1.3,3.5,1.7c7.9,3,16.2,3.3,24.5,2.9c3.6-0.2,7.2-0.3,10.8-1.4c3.2-0.9,6.5-1.7,9.8-1.6
								c5.7,0.2,11.5-0.6,17.2,1.2c1.1,0.4,2.3,0.5,3.4,0.8c3.6,1.2,7.2,2.2,10.6,3.7c2.6,1.1,5.1,2.8,7.6,4.2
								c3.6,3.1,7.7,5.8,10.3,10.2c-0.9,0.8-8.1-0.3-9.3-0.2c-3.8,0.4-7.5,0.8-11.3,1.5c-9,1.6-17.3,5.3-25.8,8.5
								c-6.2,2.3-12.4,4.6-18.9,6.1c-8.7,2-17.4,2-26.1,0.2c-1.3-0.3-5-0.9-5.1-1.4c-1-0.3-2.1-0.7-3.7-1.2c0.4,1.5,0.7,2.4,0.9,3.2
								c14,6.6,28.2,5.6,43.1,2.4c-1.3,1.3-2.1,2.1-2.9,2.8c-2.3,2.2-4.4,4.6-6.8,6.7c-5,4.3-10.6,7.6-16.6,10.2
								c-3.6,1.6-7.3,3.1-11.6,3.5c0.1,0.5,0.2,1,0.4,1.8c4.2-1.1,8.4-1.8,12.3-3.2c8.7-3,16.1-8.3,22.8-14.5c3-2.8,6.3-5.2,9.7-7.4
								c5.2-3.5,11-5.9,17-7.7c6.6-1.9,13.3-2.1,20-1.5c4.4,0.3,8.7,1.4,12.6,3.4c10.1,5.1,16.7,13.4,20.9,23.8
								c1.9,4.8,3.5,9.7,3.8,14.9c0.3,4.8,0.7,9.5,0.8,14.3c0.1,3-0.2,6-0.2,9c0,2.1-6.2,20.8-5,23.5c-1.8,1.4-1.5,3.5-2,5.2
								c-0.6,1.8-1.1,3.5-1.6,5.3c-0.5,1.6-2,3-1.3,4.7c-0.9,0.7-1.8,1.2-2.5,1.9c-3.2,3-7,3.9-11.3,3.3c-3.6-0.5-7.3-0.7-10.5-1.1
								c-1.3,0.8-1.9,1.5-2.7,1.7c-1.6,0.5-2.7,1.5-3.8,2.9c-1.4,1.9-3.5,2.7-5.9,2.5c-3.7-0.2-6.6-2.6-9.9-4
								c-1.8-0.8-3.5-1.8-5.5-2.1c-4.4-0.8-8.4,0.6-12.4,1.6c0,0.6,0,1.1,0,1.8c1.2-0.4,2.3-0.6,3.2-1c4.1-1.9,7.9-0.3,11.5,1.3
								c3,1.3,5.3,3.9,8.6,4.7c0.5,0.1,0.9,0.6,1.5,1.1c-4.3,3.8-9.3,4.7-14.7,4.6c0.4,0.4,0.7,0.6,1,0.6c5,0.3,9.9,0.1,14.5-1.8
								c1-0.4,1.8-1.5,2.8-2c3.9-1.8,7.8-3.5,11.7-5.2c2.2-1,4.5-0.9,7.1,0.3c-6.3,3-10.4,7.7-12.9,13.6c-1-0.1-1.9-0.4-2.7-0.2
								c-2.3,0.6-4.6,0.3-6.9,0c-2.4-0.3-5-0.6-7.7,1.4c2.9,0.2,5.3,0.3,7.6,0.6c2.3,0.3,4.7,0.7,7.6,1.1c-2.6,2.6-4.8,4.7-7,6.8
								c-5.1-1.1-20.6,6.4-20.7,11.2c0.4-0.3,0.7-0.5,1-0.8c4.5-4.4,9.8-7.2,16.2-7.8c2-0.2,4-0.9,5.7-1.4c0.4-0.8,0.7-1.4,1-2
								c1.6,4.9,0.3,8-4.1,9.9c-1.1,0.5-2.1,1.1-3.1,1.7c-2.1,1.2-3,3.1-3.4,5.5c2.2-3.4,5.3-5.3,9.1-6.4c2.4-0.7,3.6-2.6,4-5
								c0.8-4.5,3-8.4,5.4-12.2c1.5-2.3,3.7-3.8,5.3-5.8c2.3-2.9,5.1-4.7,8.8-5.3c2.4-0.4,4.8-0.7,7.2-1.1c2.8-0.5,5.7-1.1,8.5-1.6
								c-2.4,2.2-5,4-7.5,5.9c-2.6,2.1-5.3,3.1-8.9,2.7c-5.3-0.6-8.8,3.2-8.6,8.6c0,1.1-0.5,2.2-0.8,3.3c-0.2,0.6-0.5,1.1-0.7,1.6
								c1.9-1.1,2.4-2.6,2.5-4.6c0.2-5,3.2-7.3,8.2-6.5c1,0.2,2.1,0.3,3.3,0.5c-0.5,2.1-1.5,3.7-3.1,5.1c-1.2,1-2.5,1.9-3.6,3
								c-1.7,1.6-2.1,3.7-2,6c0.3-0.1,0.5-0.1,0.5-0.2c0.1-0.2,0.2-0.3,0.2-0.5c0.7-2.9,2.4-4.7,5-6.1c1.5-0.8,2.8-2.1,3.8-3.5
								c3.4-4.7,7.6-8.3,13-10.4c1.7-0.6,3.5-1.3,5.5-2c-1.5,4.5-3.6,7.7-8.5,8.8c3.7,0.8,5.7-0.6,7.3-3c1.5-2.3,3.1-4.3,5.6-5.6
								c0,0.2,0.2,0.4,0.1,0.5c-0.6,3.4-2.8,5.7-5.4,7.7c-2,1.5-4.3,2.6-6.4,4c-4.1,2.7-7.8,5.6-9.9,10.3c-2.2,5-5.8,8.9-11.2,10.9
								c-2.6,0.9-4.7,3-6.9,4.7c-0.4,0.3-0.5,1-1.1,2.2c2.2-1.6,3.7-3.1,5.5-3.8c4.3-1.6,8.8-2.5,12.8-6.2c0,4,0.1,7.3-2.7,9.6
								c-2.5,2-3.4,4.7-3.6,7.7c-0.2,2-0.1,4.1,0,6.1c0,0.4,0.4,0.7,0.7,1.3c1.5-2.1,1.1-4.2,1-6.1c-0.1-2.8,0.6-5.3,2.9-7
								c3.5-2.6,4.6-6.1,4.8-10.2c0.1-2.8,0.3-5.7,1.8-8.2c2.3-3.8,5.9-5.6,10.1-6.8c-0.4,3.7-0.8,7.1-1.2,11.1
								c-2.4,2.6-5,5.5-7.6,8.3c-0.7,2.9,0.5,5.2,1.7,7.5c0.9,1.9,1.8,3.8,2.7,5.8c0.8-4.1-2.2-7.2-3.2-10.7c1.4-3,4.3-5.8,7.8-7.5
								c1,1.9,2.3,3.7,3,5.7c0.7,1.9,0.8,4,1.1,6c1.1-2.4,1.2-4.7,0.2-7.1c-1.3-3.1-2.3-6.2-2.4-9.6c0-0.6-0.3-1.3-0.4-1.8
								c1.5-5.1,3.9-9.5,8.5-13c0,1.5,0,2.5,0,3.4c1.2,2.6,2.6,5,3.5,7.5c1.1,3,1.4,6.1-0.3,9.2c0.9-0.8,1.9-1.7,2.1-2.6
								c0.4-2.5,0.7-5-0.4-7.5c-2.7-5.9-2.4-11.5,1.8-17c1.4-0.2,3-0.5,4.6-0.7c1.1,1.1,2.4,1.9,3,3c2.1,4.1,2.9,8.4,0.9,12.9
								c-1.1,2.3-1.7,4.8-1.5,7.4c0.2,2.2,0.8,3.2,3,4.3c-2.6-3.3-2.2-6.5-0.5-9.6c1.7-3,3.2-6,3.5-9.4c0.5,0.1,0.7,0.1,0.8,0.2
								c5.7,3.7,8.4,12.5,6,19.2c-0.7,2-1.5,4-2.1,6.1c-0.5,1.9-0.6,3.9,1.7,5.9c-2.1-5.6,1.8-8.9,3.2-13.1c2,1.6,3.7,2.8,5.3,4.2
								c2.6,2.3,2.8,3.9,1.3,6.9c-0.9,1.7-1.6,3.6-2.2,5.4c-0.2,0.6,0.1,1.3,0.1,2.1c1.2-2.6,2.4-4.9,3.4-7.3c0.4-1,0.7-2,0.9-3
								c0.5-3.1-1.3-5.2-3.5-6.9c-2.3-1.8-3.7-3.9-4.1-6.8c-0.4-2.9-0.8-5.7-1.3-9c1.7,0.8,3,1.4,4.4,2.1c4.3,2.1,6.6,5.6,7.4,10.2
								c0.4,2.3,0.8,4.6,1,6.9c0.2,3,2,4.9,4.2,6.7c0.9,0.8,1.6,1.9,2.1,3c0.6,1.3,0.9,2.8,1.3,4.3c1.5-4.8-1-7.9-4.3-11
								c-0.3-2.5-1.7-5-1.2-7.8c2.4,1.3,4.6,2.7,6.9,3.9c1.5,0.7,3.2,0.9,4.7,1.6c1.6,0.7,3,1.7,4.4,2.7c2.1,1.6,3.4,3.9,4.5,6.3
								c-0.6-4-2.2-7.4-5.8-9.5c-2.1-1.2-4.3-2.3-6.6-3.2c-2.2-0.9-4-2.3-5.5-4.2c-1.8-2.3-3.4-4.6-4.6-7.3c-1.7-3.9-5-6.4-8.6-8.5
								c-2.4-1.4-4.8-2.9-7.1-4.5c-2.6-1.9-4-4.5-5.3-8.1c2.7,1.4,4.3,3.1,5.5,5.1c1.6,2.7,4,3.8,7,4.1c0.4,0,0.9-0.2,1.3-0.2
								c-5.5-0.7-6.9-5-8.9-9c3.3,1.1,6.5,2.2,9.5,3.9c3.4,1.9,6.4,4.3,8.6,7.7c1.1,1.7,2.9,3.2,4.6,4.3c2.3,1.5,4.1,3.2,4.6,6
								c0.1,0.5,0.3,1.1,0.6,2.2c0.7-4.2-0.6-6.8-3.4-9c-2.3-1.9-4.3-4.1-6.6-6.3c0.6-0.4,0.8-0.6,1.1-0.6c1.5-0.1,3.1-0.3,4.6-0.3
								c4.1-0.2,6.3,1.8,6.8,5.9c0.2,1.6,0.8,3.2,1.3,4.7c0.2,0.4,0.9,0.7,1.4,1c-1.3-2.1-1.5-4.2-1.6-6.5c-0.2-4-3.3-8.6-9.2-7.3
								c-1.7,0.4-3.5,0.3-5.1-0.8c-3.9-2.7-7.8-5.5-11.6-8.2c2.4,0.4,4.7,1.1,7.1,1.6c2.5,0.5,5,0.6,7.5,0.9
								c4.6,0.5,8.4,2.5,11.3,6.1c1.6,2,3,4,4.7,6c2.9,3.5,4.8,7.3,5.5,11.8c0.4,2.4,1.8,4.1,4.1,4.9c0.6,0.2,1.2,0.6,1.9,0.8
								c3.1,1,5.6,2.9,7.3,5.9c0-1-0.1-1.9-0.5-2.6c-1.2-2.2-3.4-3.4-5.5-4.6c-1.5-0.9-2.9-1.9-4.2-2.7c-0.4-2.1-1.3-3.8-0.5-5.8
								c3.8,1.4,7.6,2.7,11.9,2.1c-1-1.7-1-1.7-2.2-2.1c-2.2-0.6-4.3-1.2-6.4-1.9c-2.8-1.1-4.9-2.9-6.2-6c5.1-0.6,9.9-1.2,15.3-1.8
								c-3.3-1.6-6.3-1.6-9.3-1c-4.5,0.8-8.3-0.1-11.1-4c-2.8-3.9-6-7.4-10.8-9.5c2.8-1.3,5.2-1,7.6,0c3.4,1.5,6.7,3.1,10,4.9
								c6.3,3.5,12.8,5.3,20.3,3.4c-2.8-0.9-5.5,0.4-8-0.8c-2.4-1.1-5-1.7-7-3.7c5-2.7,9.7-5.3,15-8.2c2.6,0.4,5.8,0.9,9,1.4
								c-3.7-3-8-2.9-12.9-2.8c-2.4,1.2-5.2,2.6-8.1,4.1c-8,4-9.4,2-14.2-1.9c-3.3-2.7-7.1-4.4-11.6-3c-0.7,0.2-1.3,0.4-2,0.5
								c-3.3,0.6-6.5,0.9-9.6-0.8c-0.9-0.5-1.9-0.9-2.9-1.3c-1.3-2.4-2.8-4.6-3.9-7c-0.9-2-1.3-4.2-1.9-6.4c-0.8-3-2.9-9-3.1-11.8
								c-0.7-13.1-0.3-26.1,0.3-39.1c0.1-2.8,0.6-5.7,1.4-8.3c2.4-7.4,5.4-14.4,10.5-20.4c3.9-4.6,8.4-8,13.9-10.4
								c3.7-1.6,7.5-2.9,11.5-3c4.3-0.2,8.6-0.6,12.8-0.1c6.9,0.9,13.5,3.2,19.6,6.4c3,1.6,6,3.3,8.7,5.3c4,3.1,7.6,6.6,11.6,9.8
								c6.3,5,13.4,8.7,21.1,10.9c2,0.6,4,0.9,6,1.2c1,0.2,2.2,0.2,2.3-1.6c-15.5-2.5-27-11.4-37.1-22.7
								C256.9,154.1,270.6,154.9,283.9,149.1z M157.1,158.3c-0.1-0.8-0.1-1.2-0.1-1.2c0.3-1.2,0.8-2.5,1.4-3.8
								c0.7-1.4,1.5-2.7,2.6-3.6c0.4-0.2,0.8-0.5,1.2-0.7c0,0,0,0,0,0l0,0c3.9-2.6,6.4-6.7,7.1-12.7c-5.9-0.6-12-1.1-18-1.7
								c-3.1,8-5.6,11.6-9.2,12.8c0.6-0.9,1.1-1.5,1.5-2.2c1.7-3.4,3.5-6.8,4.9-10.3c0.4-1,0.4-3-0.1-3.3c-1.5-0.9-3.4-1.6-5.1-1.7
								c-2.2-0.1-4.4,0.4-6.6,0.7l0-0.5c-0.8,0.9-1.7,1.9-2.5,2.8c-0.2-0.1-0.4-0.3-0.6-0.4c0.1-1,0.3-2,0.3-3.1
								c0-1.1-0.2-2.1-0.4-3.3c-6.6,3.1-9.7,3.4-11.7,1.1c1.7-0.3,3.5-0.4,5-0.9c1.6-0.5,3-1.4,4.4-2.1c-2.1-1.4-4-2.7-6-3.9
								c0.1-0.3,0.3-0.5,0.4-0.8c0.7,0.3,1.4,0.6,2.1,0.9c6,2.3,13.2-0.5,15.9-6.1c1.5-3.1,0.2-4.9-3.2-4.7
								c-4.1,0.3-8.2,0.7-12.4,0.6c-5.1,0-5.9,0.4-7.4,5.4c-1,3.5-2.2,6.9-4.7,9.8c-3.6,3.9-3.4,6.1,0.1,10.1
								c0.8,0.9,1.7,1.7,2.5,2.7c1.7,2,3.5,4,5,6.2c0.3,0.5,0.7,1,1,1.4c0,0,1.1,1.8,2.1,4.9c0.6,1.9,1.2,4.3,1.5,7.2
								c-12.9-9.2-23.8-20.4-31.1-35c-3.1-6.3-4.7-13-3.5-19.9c0-0.2,0-0.4,0-0.6c0.1-0.2,0.2-0.4,0.2-0.6c0.2-0.7,0.3-1.4,0.5-2.1
								c3.1-10.1,10.1-16.6,20.5-18.7c10.6-2.1,19.4,1.5,26.3,9.9c0.3,0.4,0.6,0.8,0.9,1.2c2.6-2.1,5.1-4.3,7.7-6.3
								c8.6-6.5,20.3-7.1,29.5-1.6c9.4,5.6,14.4,16.4,12.8,26.9c-1.4,9.5-5.9,17.5-11.7,24.9C173.7,144.7,165.9,152,157.1,158.3z"/>
						</g>
					</g>
					<g>
						<path class="st2" d="M35.4,58.8c2.5,2,5.3,3.5,8.1,4.9C40.7,62.1,38,60.4,35.4,58.8z"/>
					</g>
					<g>
						<path class="st2" d="M265.1,150.6c-8.7,0-17.9-2-28.1-6c0,0,0,0,0,0c-0.9,0-2.2-0.6-4.8-1.7c-0.4-0.2-0.8-0.4-1-0.4
							c-1.4-0.5-2.9-1.1-4.3-1.6c-1.2-0.4-2.4-0.9-3.6-1.3c-8.1-3.1-17.8-6.2-28.3-6.7c-1.4,0-6.6,0.4-8.4,0.8l-1.1,0.2l-0.5-1
							c-0.1-0.2-0.2-0.3-0.2-0.5c-1,1.5-2.1,3-3.3,4.5c-6.7,8.5-14.6,16.1-23.6,22.5l-1.9,1.4l-0.5-3.8l0.1-0.3
							c0.4-1.5,0.9-2.9,1.5-4c0.6-1.2,1.2-2.2,1.9-3l-0.3-0.1l1-0.7c0.1-0.1,0.4-0.4,0.4-0.4l0.1-0.1c0.3-0.2,0.5-0.3,0.9-0.5
							l0.2-0.2c3.4-2.2,5.4-5.6,6.3-10.2l-15.4-1.5c-3.2,7.9-5.8,11.4-9.7,12.6l-4,1.3l2.4-3.4c0.2-0.3,0.4-0.6,0.6-0.8
							c0.3-0.5,0.6-0.8,0.8-1.2l0.9-1.8c1.4-2.7,2.8-5.6,4-8.4c0.2-0.4,0.2-1.3,0.1-1.7c-1.3-0.8-2.9-1.3-4.2-1.3
							c-0.2,0-0.4,0-0.6,0c-1.2,0-2.4,0.2-3.7,0.4c-0.7,0.1-1.4,0.2-2,0.3l-2.5,2.7l-2.4-1.5l0.1-0.9c0-0.3,0.1-0.6,0.1-1
							c0.1-0.7,0.2-1.3,0.1-1.9c0-0.4,0-0.8-0.1-1.2c-3.1,1.3-5.3,1.9-7.1,1.9c-1.9,0-3.3-0.6-4.5-2l-1.7-1.9l2.5-0.4
							c0.6-0.1,1.1-0.2,1.6-0.2c1.1-0.1,2.2-0.3,3.2-0.6c0.7-0.2,1.4-0.6,2-0.9l-5.1-3.3l1.7-3l1.9,0.8c0.5,0.2,0.9,0.4,1.4,0.6
							c1.2,0.5,2.6,0.7,3.9,0.7c4.3,0,8.4-2.5,10.2-6.1c0.5-1,0.6-1.8,0.4-2.2c-0.2-0.3-0.8-0.5-1.7-0.5c-0.1,0-0.3,0-0.4,0
							c-1,0.1-2,0.1-3,0.2c-3,0.2-6,0.4-9.1,0.4l-0.9,0c-3.9,0-4.2,0-5.5,4.4c-1.1,3.7-2.3,7.3-5,10.3c-3,3.3-3,4.7,0.1,8.2
							c0.4,0.4,0.7,0.8,1.1,1.2c0.5,0.5,1,1,1.4,1.5c0.4,0.5,0.8,1,1.2,1.5c1.3,1.5,2.7,3.1,3.8,4.9c0.3,0.5,0.6,0.9,0.9,1.2
							l0.1,0.1l0.1,0.1c0,0.1,1.2,1.9,2.2,5.2c0.7,2.4,1.3,4.9,1.6,7.5l0.3,3.1l-2.6-1.8c-11.1-7.9-19.7-16.6-26.2-26.4l-0.1,0.1
							c-0.5,0.4-1.3,0.6-2.7,0.6c-1.4,0-3.1-0.2-4.7-0.3c-1-0.1-2-0.2-2.6-0.2c0,0-1.9,0.2-1.9,0.2c-3.1,0.4-6.3,0.7-9.3,1.3
							c-6.9,1.3-13.7,3.9-20.2,6.4c-1.8,0.7-3.6,1.4-5.4,2l-0.5,0.2c-6,2.2-12.1,4.5-18.5,6c-4.5,1-9.2,1.6-13.8,1.6
							c-4.2,0-8.6-0.4-12.9-1.3l-0.7-0.1c-2.7-0.5-4.2-0.8-4.9-1.4l-0.8-0.3l0,0c6.6,3,13.6,4.5,21.5,4.5c5.8,0,12.2-0.8,20.1-2.5
							l4.8-1l-6.4,6.3c-0.7,0.7-1.4,1.4-2.1,2.1c-1.5,1.6-3.1,3.2-4.8,4.7c-2.9,2.5-6.1,4.8-9.6,6.8c4.9-2.6,9.9-6.2,15-11
							c2.7-2.5,5.7-4.8,9.9-7.6c4.9-3.3,10.6-5.8,17.4-7.8c4.2-1.2,8.8-1.9,14-1.9c2,0,4.1,0.1,6.5,0.3c4.8,0.4,9.2,1.6,13.1,3.6
							c9.8,4.9,17,13.2,21.6,24.5c1.8,4.4,3.6,9.6,3.9,15.4c0.1,1.7,0.2,3.4,0.3,5c0.2,3,0.4,6.2,0.5,9.3c0,1.3,0,2.6,0,3.9
							c2.8-1.9,5.5-3.8,8.2-5.7c5.8-4.9,11.3-10.1,16.3-15.8c2.8-3.2,6-5.9,9.4-8.3c2.7-7.5,5.7-13,9.7-17.8
							c4.1-4.8,8.8-8.3,14.4-10.8c4.6-2.1,8.3-3,12-3.2c1,0,2-0.1,3-0.1c1.8-0.1,3.7-0.2,5.5-0.2c1.7,0,3.1,0.1,4.5,0.3
							c6.6,0.8,13.3,3,20.1,6.6c2.9,1.5,6.1,3.3,8.9,5.5c2.2,1.7,4.3,3.5,6.3,5.3c1.7,1.5,3.5,3.1,5.3,4.5c3.1,2.5,6.4,4.6,9.9,6.4
							c-6.6-3.9-13-9.3-19.4-16.5l-2.9-3.3l4.3,0.9c7,1.5,13.2,2.3,18.8,2.3c0,0,0,0,0,0c7.6,0,14.5-1.3,20.9-4.1
							c0.1-0.2,0.3-0.3,0.4-0.5C277.6,149.5,271.4,150.6,265.1,150.6z"/>
					</g>
					<g>
						<path class="st2" d="M13.3,85.2c0.4,0.4,0.9,0.7,1.4,1c0.4,0.3,0.8,0.5,1.2,0.8c1.6,1.2,3.1,2.3,4.6,3.5
							c3.2,2.4,6.5,5,9.8,7.3c4.9,3.4,10.3,5.5,16.1,7.8l6.4,2.5l-4.5,1c-0.9,0.2-1.7,0.4-2.6,0.6c-1.9,0.5-3.7,0.9-5.6,1.3
							c-0.9,0.2-1.7,0.4-2.6,0.5c-2.7,0.6-5.4,1.2-8.2,1.3l-1.5,0.1c-2.2,0.1-4.5,0.2-6.8,0.2c-0.1,0-0.1,0-0.2,0
							c1.2,0.1,2.5,0.1,3.8,0.1c1.7,0,3.6-0.1,5.6-0.2l0.6,0c3.3-0.2,6.7-0.4,9.9-1.3c3.9-1.1,6.8-1.6,9.6-1.6c0.2,0,0.4,0,0.7,0
							c0.7,0,1.4,0,2.2,0c0.8,0,1.6,0,2.4,0c0.8,0,1.6,0,2.4,0c3.4,0,7,0.2,10.6,1.3c0.5,0.2,1,0.3,1.5,0.4c0.6,0.1,1.2,0.3,1.9,0.5
							c0.8,0.3,1.6,0.5,2.5,0.8c2.7,0.9,5.6,1.8,8.3,3c1.9,0.8,3.7,1.9,5.5,3c0.8,0.5,1.5,0.9,2.3,1.3l0.1,0.1l0.1,0.1
							c0.8,0.7,1.7,1.4,2.6,2.1c1.2,1,2.5,2,3.7,3.1c-0.4-0.7-0.8-1.5-1.1-2.2c-3.5-7.1-4.8-14.1-3.6-20.6v-0.8l0.3-0.7
							c0.2-0.7,0.3-1.4,0.5-2c3.3-10.7,10.8-17.5,21.6-19.6c2-0.4,4.1-0.6,6-0.6c8.4,0,15.7,3.7,21.7,11c0,0,0,0,0,0
							c0.4-0.4,0.8-0.7,1.3-1.1c1.7-1.5,3.5-3,5.4-4.4c4.8-3.6,10.7-5.6,16.8-5.6c5.1,0,10,1.4,14.3,4c9.7,5.8,15.1,17.2,13.5,28.4
							c-0.9,6.1-3.1,11.9-6.6,17.9c1-1.2,2.8-3.4,3.1-4l0.1-0.4l0.4-0.3c0.5-0.4,1-0.8,1.5-1.2c1.1-1,2.3-2,3.6-2.9
							c1.8-1.3,10.2-5.1,13-6.4l0.4-0.2l0.4,0.1l7-2l0-0.2l1.7-0.3c0.4-0.1,0.9-0.2,1.3-0.2c4.2-0.7,8.1-1,11.9-1
							c4,0,7.9,0.4,11.6,1.1c5,1,10.3,2,15.5,2c0.8,0,1.5,0,2.3-0.1c-6.9-0.3-14.3-1.7-22.9-4.2l-3.8-1.1l3.6-1.6
							c0.2-0.1,0.4-0.2,0.6-0.3c0.5-0.2,1-0.5,1.6-0.7c5.9-1.7,10.6-3.6,14.5-7.1c0.3-0.3,0.6-0.4,0.8-0.6l0.2-0.1
							c0.7-0.4,1.4-0.8,2.1-1.2c1.5-0.9,3.1-1.8,4.6-2.7c2-1.3,3.9-2.8,5.6-4.2c1.6-1.3,3.2-2.7,5.2-4.5c0.3-0.3,0.5-0.5,0.5-0.7
							c-1.6,1.2-3.3,2.4-4.9,3.6c-1.4,1-2.7,2-4.1,3.1c-5.3,4-11.3,7.4-17.6,10.3c-4.6,2.1-9.5,3.1-14.2,4.1
							c-0.9,0.2-1.8,0.4-2.7,0.6c-4.4,0.9-8.8,1.8-13.2,2.6l-2.1,0.4c-0.6,0.1-1.2,0.2-1.6,0.5l-0.2,0.1l-3.5,0.8l-0.8,0.1l0,0
							c-0.8,0.2-1.6,0.4-2.5,0.7c-1.7,0.5-3.5,1-5.3,1c-1,0-1.9-0.1-2.8-0.4l-0.3-0.1l-0.2-0.2c-1.9-1.6-2.8-3.8-2.5-6.3l0.3-2.9
							c0.2-1.9,0.4-3.9,0.6-5.8c0.5-4.5,2.2-8.4,5.1-11.6l6.9-7.6l0.3-0.1c0.5-0.2,1-0.4,1.4-0.6c0.7-0.3,1.3-0.5,1.8-0.8
							c3.7-2.3,7.8-4,12.6-5.1c5.7-1.4,13.2-3.5,20.2-7.3c0.2-0.1,0.4-0.2,0.6-0.3c-7.5,3.8-15.8,6.2-25.2,7.3l-4.8,0.5l3.7-3
							c9.9-8.1,16.8-17.5,21.1-28.7l-0.3-0.2c-0.6,1.1-1.2,2.1-1.7,3.2c-2.7,5-5.5,10.2-9.6,14.5c-4.6,5-10.1,9.1-15.5,13.1
							l-1.2,0.9l0,0.4l-4,2.9v-0.6c-0.5,0.3-0.9,0.5-1.2,0.8c-2.9,2.3-5.9,4.7-9.1,7.3c-1.7,1.4-3.1,2-4.6,2c-1.7,0-3.2-0.8-4.9-2.5
							c-4.1-4.2-8.5-6.6-13.6-7.5c-1.9-0.3-3.8-0.9-5.6-1.5l-0.3-0.1c-1.7-0.6-3.7-1.9-3.6-5.5c0.1-4.7,2-9.1,5.5-12.8
							c2.6-2.7,5.5-5.2,8.3-7.7c1.4-1.3,2.9-2.5,4.3-3.8c0.3-0.3,0.6-0.6,0.9-1.1c0,0,0.1-0.1,0.1-0.1c-2.2,1.9-4.4,3.5-6.6,5
							c-0.5,0.3-2.7,1.9-2.7,1.9l-2.4-1.5l0.5-1.1c5.4-11.8,7.6-23.2,6.7-34.6c0,8.5-1.5,17.4-4.9,27.8l0,0.1c0,0-0.7,1.3-1,1.9
							c-0.7,1.3-1.3,2.5-2,3.8c-1.9,3.3-3.7,6.5-5.6,9.8c-1.2,2.1-2.5,4.3-3.7,6.4c-0.6,1-1.1,2-1.7,3c-1,1.9-2.1,3.8-3.2,5.6
							c-0.8,1.4-1.8,2.7-2.7,4c-0.6,0.8-1.1,1.6-1.6,2.4c-2.4,3.6-5.1,6.9-8.2,9.7l-0.6,0.6l-0.8-0.3c-0.1,0-0.3-0.1-0.4-0.1
							c-0.3-0.1-0.8-0.2-1.2-0.5c-0.6-0.5-1.2-1.1-1.8-1.7c-3.4-3.7-6.6-8.1-9.8-13.4c-0.4-0.6-0.8-1.2-1.2-1.8
							c-0.5-0.7-1.1-1.5-1.5-2.3c-0.7-1.2-1.3-2.4-1.9-3.6c-0.9-1.8-1.7-3.5-2.7-5.1c-0.8-1.2-1.3-2.5-1.9-3.8
							c-0.7-1.7-1.5-3.4-2.6-4.7c-0.9-1-1.8-2.4-2.5-4l-0.3-0.7c-1.5-3.2-3-6.5-4.3-9.8c-0.4-1.1-0.8-2.2-1.2-3.5
							c-0.3-1.3-0.8-3.3-1.3-5.7c-0.4-2.4-0.7-4.9-0.9-7.5c-0.1-2-0.1-4-0.1-6c0-1,0-2,0-3c-0.4,1.3-0.3,2.7-0.3,4.1
							c0,0.8,0.1,1.7,0,2.6c-0.2,3.2,0.1,6.3,0.5,9.7c0.1,1,0.2,2.1,0.3,3.1l0.4,4c0.2,0.3,0.4,0.6,0.7,0.9l0.1,0.2l0.1,0.2
							c1,4.3,2.4,8,4.3,11l0.1,0.2l0.7,4.6l-2.6-1.6c-0.7-0.4-1.4-0.8-2.1-1.2l-0.3-0.2l-0.4-0.7c-1.6-1.5-13.6-12.6-20.4-22.6
							c1,3,3.4,7.7,9.4,13.6l0.1,0.1l0.1,0.1c0.4,0.5,0.8,1.1,1.1,1.8l1.2,1.2c0.4,0.4,0.8,0.8,1.2,1.2c0.8,0.8,1.6,1.6,2.4,2.3
							c0.9,0.8,1.7,1.5,2.5,2.3c2.6,2.3,5.2,4.7,7.9,6.9c0.6,0.5,1.2,1,1.8,1.7c0.3,0.4,0.7,0.8,1.1,1.3c2.1,2.7,3.2,5.8,3.9,8.2
							c0.8,2.7,0.7,5-0.4,6.6c-1.1,1.7-3.1,2.7-6,3.1c-0.2,0-0.3,0-0.5,0c-0.1,0-0.2,0-0.3,0c-6.3,1-10.8,3.3-14.4,7.1
							C99,80.5,98,81.2,97,82c-0.5,0.3-0.9,0.7-1.4,1.1L95,83.6l-0.8-0.3c-0.4-0.2-0.9-0.3-1.3-0.4c-1.1-0.3-2.3-0.7-3.3-1.4
							c-1.9-1.4-3.7-2.9-5.4-4.4c-0.8-0.7-1.7-1.4-2.5-2.1c-0.6-0.5-2.3-1.7-3.8-2.8c-1.3-0.9-2.5-1.7-3-2.1
							c-3.1-2.5-6.3-4.9-9.5-7.3c-6-4.6-11.1-10.6-15.4-18.5c-0.8-1.5-1.7-3.1-2.5-4.6l-0.6-1.1c0,0,0,0-0.1,0c0,0-0.1,0.1-0.1,0.1
							c3.9,10.9,10.6,20.3,20.5,28.7l3.9,3.3l-5-0.9c-5.5-0.9-10.4-2-14.8-3.1c-0.8-0.2-1.6-0.4-2.3-0.7c0.3,0.1,0.5,0.2,0.8,0.3
							c2.9,1.2,6.1,2.1,9.1,2.9c2,0.6,4.1,1.1,6.1,1.8c5.5,1.8,12.5,4.6,18.1,10.5c5.4,5.7,8.1,12.2,8,19.7c0,1.3,0.1,2.6,0.3,4.2
							c0.1,0.8,0.2,1.5,0.3,2.4l0,0.4l-0.2,0.3c-1.2,2.8-6.4,2.9-7.4,2.9c-0.9,0-1.5-0.1-1.8-0.2l-1.1-0.2c-0.9-0.2-1.7-0.3-2.6-0.5
							c-2.5-0.5-5-1-7.5-1.6c-5.4-1.1-11-2.3-16.5-3.4c-6.9-1.3-14.9-3.2-22.4-7.8L30,96.2c-4-2.5-8.2-5-12-8.1
							c-1.4-1.1-2.9-2.2-4.4-3.3c-0.3-0.2-0.6-0.4-0.9-0.6c-0.1,0.2-0.1,0.3-0.1,0.3C12.7,84.6,12.7,84.8,13.3,85.2z"/>
					</g>
					<g>
						<path class="st2" d="M227.3,291.1c-3.9-2.6-7.7-5.2-11.5-7.8c-0.1,0,0-0.4,0.1-0.5C219.6,282.8,225.9,287.4,227.3,291.1z"/>
					</g>
				</g>
			</g>
		</g>
	</g>
</g>
</svg>
